<svg width="50" height="50" viewBox="0 0 50 50" fill="none" xmlns="http://www.w3.org/2000/svg">
<rect width="50" height="50" rx="25" fill="#40DDB6"/>
<path d="M29.8804 14.9122C31.1961 14.916 32.4567 15.421 33.387 16.3168C34.3173 17.2127 34.8417 18.4266 34.8456 19.6936V29.2552C34.8417 30.5221 34.3173 31.7361 33.387 32.6319C32.4567 33.5278 31.1961 34.0328 29.8804 34.0365H19.951C18.6354 34.0328 17.3747 33.5278 16.4444 32.6319C15.5141 31.7361 14.9897 30.5221 14.9858 29.2552V19.6936C14.9897 18.4266 15.5141 17.2127 16.4444 16.3168C17.3747 15.421 18.6354 14.916 19.951 14.9122H29.8804ZM29.8804 13H19.951C16.1279 13 13 16.012 13 19.6936V29.2552C13 32.9367 16.1279 35.9488 19.951 35.9488H29.8804C33.7035 35.9488 36.8314 32.9367 36.8314 29.2552V19.6936C36.8314 16.012 33.7035 13 29.8804 13Z" fill="white"/>
<path d="M31.3695 19.6935C31.0749 19.6935 30.787 19.6094 30.542 19.4518C30.2971 19.2942 30.1062 19.0702 29.9934 18.8081C29.8807 18.546 29.8512 18.2577 29.9087 17.9794C29.9662 17.7012 30.108 17.4456 30.3163 17.245C30.5246 17.0445 30.79 16.9079 31.079 16.8525C31.3679 16.7972 31.6674 16.8256 31.9395 16.9341C32.2117 17.0427 32.4443 17.2265 32.608 17.4624C32.7716 17.6983 32.859 17.9756 32.859 18.2592C32.8594 18.4477 32.8212 18.6344 32.7465 18.8086C32.6718 18.9828 32.5621 19.1411 32.4237 19.2744C32.2853 19.4076 32.1209 19.5133 31.94 19.5852C31.7591 19.6571 31.5652 19.694 31.3695 19.6935ZM24.9154 20.6494C25.701 20.6494 26.4689 20.8737 27.1221 21.294C27.7753 21.7143 28.2845 22.3117 28.5851 23.0106C28.8857 23.7095 28.9644 24.4786 28.8111 25.2206C28.6579 25.9626 28.2796 26.6441 27.7241 27.179C27.1685 27.714 26.4608 28.0783 25.6903 28.2258C24.9198 28.3734 24.1211 28.2977 23.3953 28.0082C22.6695 27.7187 22.0492 27.2284 21.6127 26.5994C21.1763 25.9704 20.9433 25.2309 20.9433 24.4744C20.9444 23.4603 21.3633 22.488 22.1079 21.7709C22.8526 21.0538 23.8623 20.6505 24.9154 20.6494ZM24.9154 18.7372C23.737 18.7372 22.5851 19.0737 21.6054 19.7041C20.6256 20.3345 19.862 21.2305 19.411 22.2788C18.9601 23.3272 18.8421 24.4807 19.072 25.5936C19.3019 26.7065 19.8693 27.7288 20.7025 28.5312C21.5358 29.3335 22.5973 29.88 23.7531 30.1013C24.9088 30.3227 26.1067 30.2091 27.1953 29.7748C28.284 29.3406 29.2145 28.6053 29.8691 27.6618C30.5238 26.7183 30.8732 25.6091 30.8732 24.4744C30.8732 22.9528 30.2455 21.4935 29.1282 20.4176C28.0109 19.3416 26.4955 18.7372 24.9154 18.7372Z" fill="white"/>
</svg>
